<svg id="Layer_1" data-name="Layer 1" xmlns="http://www.w3.org/2000/svg" viewBox="0 0 184.68 66.94"><defs><style>.cls-1{font-size:47.28px;fill:#59c1ad;font-family:CooperBlack, Cooper Black;}.cls-2{letter-spacing:-0.02em;}.cls-3{letter-spacing:0em;}.cls-4{fill:#86e8ef;}</style></defs><text class="cls-1" transform="translate(0 39.65) scale(1.31 1)">M<tspan class="cls-2" x="41.79" y="0">o</tspan><tspan class="cls-3" x="69.26" y="0">vie</tspan></text><path class="cls-4" d="M10.66,54.79h6.75V70H10.66Zm16.63,2.88a17.15,17.15,0,0,0-3.14-.25,12.7,12.7,0,0,0-5,.78c-1.17.52-1.76,1.25-1.76,2.18l-.7-2.93a11.11,11.11,0,0,1,4.1-2.12,19.4,19.4,0,0,1,5.55-.75,27.4,27.4,0,0,1,4.25.3,14.9,14.9,0,0,1,3.33.88l-4.4,2.64A7.62,7.62,0,0,0,27.29,57.67Z" transform="translate(-4.56 -3.28)"/><path class="cls-4" d="M44.81,69.43a12,12,0,0,1-5.14-2.32,4.73,4.73,0,0,1-1.77-3.7V61.69a5.12,5.12,0,0,1,1.7-3.85,11.35,11.35,0,0,1,4.95-2.43,31.49,31.49,0,0,1,7.8-.83,24.64,24.64,0,0,1,7.34,1,10.08,10.08,0,0,1,4.64,2.75,6.27,6.27,0,0,1,1.61,4.32v1H42.79V61.2H59.52a4,4,0,0,0-2.16-2.9,10.49,10.49,0,0,0-5-1,12.92,12.92,0,0,0-5.94,1.11,3.45,3.45,0,0,0-2.09,3.15v1.94c0,1.26.74,2.22,2.24,2.9a16.11,16.11,0,0,0,6.38,1A22.17,22.17,0,0,0,57,67a17.21,17.21,0,0,0,3.6-1L65,68a27.7,27.7,0,0,1-5.72,1.68,35.06,35.06,0,0,1-6.38.59A36,36,0,0,1,44.81,69.43Z" transform="translate(-4.56 -3.28)"/><path class="cls-4" d="M75.19,54.79h6.75V70H75.19Zm20.83,6a2.72,2.72,0,0,0-1.89-2.49,12.73,12.73,0,0,0-5.29-.88,13.46,13.46,0,0,0-5.1.77q-1.8.78-1.8,2.19l-.7-2.93a10.9,10.9,0,0,1,4.15-2.13,20.17,20.17,0,0,1,5.67-.74c3.72,0,6.61.54,8.65,1.61a5,5,0,0,1,3.05,4.58V70H96Z" transform="translate(-4.56 -3.28)"/><path class="cls-4" d="M110.37,54.79h15.47v2.7H110.37Zm5.47,14.26a3.23,3.23,0,0,1-1.94-3V50.37h6.75v15.7a.94.94,0,0,0,.49.86,2.87,2.87,0,0,0,1.46.3h3.24v2.84h-3.9A13.72,13.72,0,0,1,115.84,69.05Z" transform="translate(-4.56 -3.28)"/><path class="cls-4" d="M136.58,69.05q-3.14-1.15-3.14-3.53c0-1.51,1-2.63,2.88-3.39A25.25,25.25,0,0,1,145,61h9.75l.47,2.4H145a11.23,11.23,0,0,0-3.95.52c-.87.35-1.3.87-1.3,1.59s.58,1.34,1.73,1.71a18.6,18.6,0,0,0,5.28.56,32.35,32.35,0,0,0,5.76-.37c1.27-.24,1.9-.62,1.9-1.14l.7,2.14a7.87,7.87,0,0,1-2.2,1,17.57,17.57,0,0,1-3,.59,34.62,34.62,0,0,1-3.87.2C141.84,70.22,138.67,69.83,136.58,69.05Zm17.88-8.69a2.56,2.56,0,0,0-1.8-2.32,12.57,12.57,0,0,0-5.1-.83,28,28,0,0,0-4,.28,20.32,20.32,0,0,0-3.49.78l-4.92-1.5a18,18,0,0,1,5.14-1.62,40.41,40.41,0,0,1,7.09-.57,34.85,34.85,0,0,1,7.3.66,11.3,11.3,0,0,1,4.63,1.94,3.78,3.78,0,0,1,1.59,3V70h-6.42Z" transform="translate(-4.56 -3.28)"/><path class="cls-4" d="M177.87,66.07a.93.93,0,0,0,.55.86,3.19,3.19,0,0,0,1.53.3h3.18v2.84h-4a13.48,13.48,0,0,1-5.93-1,3.26,3.26,0,0,1-2.1-3V48.7h6.74Z" transform="translate(-4.56 -3.28)"/></svg>